<svg xmlns="http://www.w3.org/2000/svg" width="180" height="55" viewBox="0 0 1080 250"
    xml:space="preserve"><rect width="100%" height="100%" fill="transparent"/><g transform="matrix(0 0)"/><g transform="translate(540 125)"/><path style="stroke:none;stroke-width:1;stroke-dasharray:none;stroke-linecap:butt;stroke-dashoffset:0;stroke-linejoin:miter;stroke-miterlimit:4;fill:#fff;fill-rule:nonzero;opacity:1" vector-effect="non-scaling-stroke" transform="translate(28.872 -420.412)scale(1.68)" d="m167 335.4 10.4-5.5c4.6 9.1 11.8 13.5 21.4 13.5 9.4 0 15.8-3 15.8-10.1 0-6.7-4.8-9.9-17.6-13.6-15-4.4-27.1-8.5-27.1-23.3 0-13.2 10.8-21.9 26.6-21.9 15.3 0 24.4 7.6 29.1 16.7l-9.5 6.6c-4.6-7.8-11.2-11.3-19.6-11.3-8.6 0-13.5 3.1-13.5 8.8 0 7.2 5.6 9.7 18.3 13.4 14.7 4.3 26.5 9.1 26.5 23.7 0 12.7-10.8 22.7-29.3 22.7-15.7 0-26.6-7.9-31.5-19.7m66 18.3V276h12.9v46.3l21.1-24.4h14.2L263 318.3l19.7 35.4h-13.5l-14.4-25.8-8.9 9.8v16.1zm49-27.8c0-21.2 15-29 26.6-29 12.5 0 24.5 7.4 24.5 30.1v3H295c.5 10.1 6.7 14.5 14.9 14.5 7.2 0 11.4-2.4 15.6-6.5l6.8 6.7c-5.8 6.4-13.4 10.1-23.4 10.1-14 0-26.9-8.5-26.9-28.9m39.2-5.5c-.7-8.5-4.9-13-12.7-13-6.3 0-12.1 3.6-13.3 13zm25.8 18.7v-30.9h-9.7v-10.3h9.7v-19.4h12.9v19.4h14.4v10.3h-14.4v27.6c0 6 1.8 8.4 8.2 8.4 1.9 0 4.3-.3 5.6-.7v10.2c-1.4.3-6.2.7-9.4.7-14.3 0-17.3-5.2-17.3-15.3m32.3-13.2c0-21.3 14.4-29 26.8-29 13.9 0 19.7 7.7 23.1 16.3l-10.9 3.9c-2.2-6.3-6.2-9.3-12.4-9.3-7.3 0-13.5 4.8-13.5 18.2 0 11.9 4.8 18.4 13.3 18.4 5.9 0 10-1.8 13-9.7l10.7 3.9c-4 8.9-10.6 16.4-24 16.4-13-.2-26.1-8.8-26.1-29.1m57.8 27.8V276h13v29.5c3.6-3.8 10.3-8.6 20.4-8.6 9.8 0 16.1 5.8 16.1 16.8v40h-13V317c0-6.2-2.6-9-8.3-9s-10.4 2.9-15.1 7.2v38.5zm59.3-28.4V276h13.1v48.2c0 11.9 5.1 18.9 17.1 18.9 11.9 0 17-6.8 17-18.8V276h12.9v49.2c0 17.6-10 29.7-30 29.7-21.3 0-30.1-11.9-30.1-29.6m68.7 49.4V298H578v7.3c3.7-4.4 9.4-8.4 17.7-8.4 12.7 0 22 9.5 22 28.9s-9.5 28.8-23.8 28.8c-6 0-11.9-2.4-16-7v27.2zm39.8-48.8c0-11.8-5-17.9-13.3-17.9-5.3 0-10.5 3.4-13.5 7v22.4c3.5 4.5 8.5 6.9 13.1 6.9 9.7-.1 13.7-6.1 13.7-18.4"/><path style="stroke:none;stroke-width:1;stroke-dasharray:none;stroke-linecap:butt;stroke-dashoffset:0;stroke-linejoin:miter;stroke-miterlimit:4;fill:#005f9e;fill-rule:nonzero;opacity:1" vector-effect="non-scaling-stroke" transform="translate(-16.364 -407.056)scale(1.68)" d="m129.4 282.4-39.5-22.8s-6.3-3.7-16.3-3.7c-10.4 0-16.4 3.8-16.4 3.8l-36.6 21 55.7 32v64.7l36.7-20.9s6.6-3.6 11.5-12.2c4.4-7.6 4.9-14.9 4.9-14.9zM69.8 293s8.2-1.5 15.1 2.5 11 6.3 11 6.3v13.8c0 6.6-5.6 13.5-5.6 13.5v-24.4zm32.4 53.4-11.9 6.8v-6.4l9.3-5.3c8.8-6.4 10.3-15.8 10.3-19v-28.9L84.6 279s-3.9-2.5-10.8-2.5-10.7 2.3-10.7 2.3l-8.9 5.1-5.6-3.2 12.3-7s4.8-2.7 12.9-2.7c7.4 0 13.2 2.9 13.2 2.9l28.6 16.5v31.5c0 4.9-2.2 16.7-13.4 24.5m-84.4-44.7 39.1 22.4v6.7L34.6 318l-14 7.9 36.2 20.8v6.4L18 331c.1 2.6 2.5 10.7 7 16.9 4.6 6.3 9.8 9 9.8 9l35.8 20.6V316l-52.9-30.4z"/></svg>