<svg version="1.0" xmlns="http://www.w3.org/2000/svg" xmlns:xlink="http://www.w3.org/1999/xlink"
	x="0px" y="0px"
	width="200px"
	height="50px"
	viewBox="0 0 1406.9 507.7" enable-background="new 0 0 1406.9 507.7" xml:space="preserve">
<g id="Layer_1">
	<g>
		<g>
			<g>
				<defs>
					<circle id="SVGID_1_" cx="253.9" cy="253.9" r="242"/>
				</defs>
				<clipPath id="SVGID_00000088104024977817977850000002706645268505906867_">
					<use xlink:href="#SVGID_1_"  overflow="visible"/>
				</clipPath>
				<g clip-path="url(#SVGID_00000088104024977817977850000002706645268505906867_)">
					<path fill="#E5E5E4" d="M0,0h507.7v507.7H0V0z"/>
				</g>
			</g>
		</g>
	</g>
	<g>
		<g>
			<g>
				<defs>
					<circle id="SVGID_00000114049196730816484410000000052098553011119747_" cx="253.9" cy="253.9" r="237.2"/>
				</defs>
				<clipPath id="SVGID_00000099628686322209013400000006332653258089155220_">
					<use xlink:href="#SVGID_00000114049196730816484410000000052098553011119747_"  overflow="visible"/>
				</clipPath>
				<g clip-path="url(#SVGID_00000099628686322209013400000006332653258089155220_)">
					<path fill="#FFFFFF" d="M4.8,4.8H503V503H4.8V4.8z"/>
				</g>
			</g>
		</g>
	</g>
	<g>
		<g>
			<g>
				<defs>
					<circle id="SVGID_00000021081401404811893750000018262367695735079076_" cx="253.9" cy="253.9" r="218.2"/>
				</defs>
				<clipPath id="SVGID_00000036946817853460245690000012290210135494350980_">
					<use xlink:href="#SVGID_00000021081401404811893750000018262367695735079076_"  overflow="visible"/>
				</clipPath>
				<g clip-path="url(#SVGID_00000036946817853460245690000012290210135494350980_)">
					<path fill="#4A8CFF" d="M23.8,23.8H484V484H23.8V23.8z"/>
				</g>
			</g>
		</g>
	</g>
	<g>
		<g>
			<g>
				<defs>
					<path id="SVGID_00000101819245443667569710000003683833665755913917_" d="M320.3,225.6l61.7-45.1c5.4-4.4,9.5-3.4,9.5,4.7
						v137.5c0,9.1-5.1,8.1-9.5,4.7l-61.7-45.1V225.6z M111.5,185.6V288c0.1,23.2,19,41.9,42.2,41.8h149.5c4.2,0,7.6-3.4,7.7-7.6
						V219.7c-0.1-23.2-19-41.9-42.2-41.8H119.2C115,178,111.6,181.3,111.5,185.6z"/>
				</defs>
				<clipPath id="SVGID_00000105385743015048751570000008863359160384898493_">
					<use xlink:href="#SVGID_00000101819245443667569710000003683833665755913917_"  overflow="visible"/>
				</clipPath>
				<g clip-path="url(#SVGID_00000105385743015048751570000008863359160384898493_)">
					<path fill="#FFFFFF" d="M99.7,166.1h303.7v175.5H99.7V166.1z"/>
				</g>
			</g>
		</g>
	</g>
</g>
<g id="Layer_2">
	<path fill="#4A8CFF" d="M837.5,159L837.5,159c-52.5,0-94.9,42.5-94.9,94.8c0,52.4,42.4,94.9,94.8,94.9s94.9-42.4,94.9-94.8
		S889.9,159,837.5,159z M877.6,294.1c-22.3,22.2-58.3,22.1-80.5-0.1c-22.1-22.2-22.1-58.2,0-80.4c22.2-22.3,58.2-22.3,80.5-0.1
		l0.1,0.1C900,235.8,899.9,271.9,877.6,294.1z"/>
	<path fill="#4A8CFF" d="M723.6,311.3l-9.5-0.5h-85.4l113.9-113.9l-0.5-9.5c-0.4-15.3-12.7-27.6-28-28l-9.5-0.5H562.3l0.5,9.5
		c0.7,15.1,12.8,27.3,28,28l9.5,0.5h85.4L571.8,310.8l0.5,9.5c0.5,15.2,12.8,27.5,28,28l9.5,0.5h142.3l-0.5-9.5
		C750.3,323.6,739.2,312.2,723.6,311.3z"/>
	<path fill="#4A8CFF" d="M1330.9,159c-21.8,0-42.5,9.4-56.9,25.7c-25.2-28.6-67.8-34.1-99.4-12.7c-7.3-8.3-23.9-13-33.4-13v189.8
		l9.5-0.5c15.8-1,27.4-12.2,28-28l0.5-9.5v-66.4l0.5-9.5c0-6.6,1.7-13.1,4.7-19c10.4-18.1,33.6-24.3,51.8-13.8
		c5.7,3.3,10.5,8.1,13.8,13.8h-0.1c3.1,5.9,4.7,12.4,4.7,19l0.5,9.5v66.4l0.5,9.5c0.6,15.2,12.7,27.4,27.9,28l9.5,0.5V244.4l0.5-9.5
		c0-6.7,1.6-13.2,4.7-19.1c10.5-18.1,33.8-24.3,51.9-13.7c5.7,3.3,10.5,8.1,13.8,13.8c3,5.9,4.6,12.4,4.6,19l0.5,9.5v66.4l0.5,9.5
		c0.5,15.2,12.7,27.4,27.9,28l9.5,0.5V234.9C1406.8,193,1372.8,159,1330.9,159z"/>
	<path fill="#4A8CFF" d="M1103.8,186.8c-17.8-17.8-41.9-27.8-67.1-27.8c-25.2,0-49.3,10-67.1,27.8c-37,37.1-37,97.2,0.1,134.2
		s97.2,37,134.2-0.1C1141,283.9,1140.9,223.8,1103.8,186.8L1103.8,186.8z M1076.9,294.1c-22.3,22.2-58.3,22.1-80.5-0.1
		c-22.1-22.2-22.1-58.2,0-80.4c22.2-22.3,58.2-22.3,80.5-0.1l0.1,0.1C1099.3,235.8,1099.2,271.9,1076.9,294.1z"/>
</g>
<g id="Layer_3">
</g>
</svg>