<svg id="Capa_1" data-name="Capa 1" width="130" height="40" xmlns="http://www.w3.org/2000/svg"
    viewBox="0 0 866 298.2">
    <defs>
        <style>.cls-1{fill:#fff;fill-rule:evenodd;}</style>
    </defs>
    <title>Kahoot</title>
    <path class="cls-1"
        d="M649,581.52c-39.11,3.89-70.8-27.39-70.8-69.87s29.89-76.39,66.76-75.73,68.57,31.92,70.8,69.87S688.1,577.63,649,581.52ZM433.5,501.9c2.23-37.94,33.93-69.21,70.79-69.86s66.76,33.26,66.76,75.73-31.69,73.76-70.8,69.87S431.27,539.84,433.5,501.9ZM58,376.23l45.69-11.72-.11,92.9L180.73,383l39.68,15.25-56.08,62.21,37.19,135.48H161.18l-29.76-103.8-28.11,27.52.38,76.28L58,594.31Zm373.75,205H391.63L389,519.47l-3.73-43.92c-.93-30.79-28.7-23-37.1-19.26l2.22,124.93-38.34-1.33-6.23-241.77,39.05-10.43.88,97.81c42.46-13.56,65.2-13.42,70.91,48.95Zm432.19,27.93,11.33-26.67h26.32l10,29.27-23.63,14.14ZM715.12,461.84l-6.57-45.38,34.1,1.19,0-63.72,30.48,12.63-.54,56.57L816.44,426v27.47l-42.8,2.39,3.59,83.6s.09,6.53,13.48,6.53,25.73-7.36,25.73-7.36v42.63c.59,13-17.72,18.44-17.72,18.44-58.52,8.89-54.22-29.94-54.22-29.94l-1.91-107.93ZM924,367.1,892.83,567.34l-49.59-215.8ZM221.4,455.18l-10.69-28.24s78.1-34.91,87.39,27.74L297,589.28H237.69s-26,1-34-28c0,0-20-74,59.07-88l.2-18S247.94,439.06,221.4,455.18Zm397.14,59.21c1.67,19.65,13.84,30.37,21.84,31.31,20.27,2.39,37.53-16.15,36.38-39.76S666.17,467.58,647,467.18,616.36,488.72,618.54,514.39Zm-355.9,49.14,1.08-60.27c-32.31-4.69-32.92,39-32.92,39C234,570.56,262.64,563.53,262.64,563.53Zm246.24-21.71c8-.94,20.17-11.65,21.83-31.3,2.19-25.67-9.38-47.62-28.49-47.22s-28.57,15.16-29.72,38.77S488.6,544.22,508.88,541.82Z"
        transform="translate(-58 -327.69)" />
</svg>